# Blender v2.77 (sub 0) OBJ File: ''
# www.blender.org
mtllib Fire Gem.mtl
o MODELS_bin_063:poly000
v -0.000000 0.271875 0.323828
v 0.209766 0.236719 0.222266
v -0.000000 0.000000 0.412110
v -0.212500 0.293359 0.223828
v -0.248828 0.173047 0.253906
v 0.182813 0.234766 0.195703
v 0.323438 0.271875 0.000000
v 0.283594 0.060547 -0.275781
v 0.322266 -0.000000 -0.219531
v 0.248828 0.271875 -0.230078
v 0.000000 0.271875 -0.323828
v 0.000000 -0.000000 -0.412110
v 0.156641 -0.000000 -0.346484
v -0.279297 0.010547 -0.282813
v -0.227344 0.271875 -0.230078
v -0.323438 0.271875 -0.000000
v -0.411719 0.000000 -0.000000
v -0.000000 0.437110 0.005859
v -0.000000 0.450000 0.064062
v -0.085938 0.421485 0.094141
v 0.066016 0.436328 0.085156
v 0.096875 0.430469 0.004297
v 0.059375 0.440625 -0.050000
v 0.000000 0.298047 -0.235547
v -0.058203 0.437500 -0.054297
v 0.000000 0.435547 -0.059375
v -0.091406 0.433203 0.004297
v -0.269531 0.000000 0.276953
v -0.329297 -0.292969 -0.000000
v -0.222656 -0.314453 0.234375
v -0.274219 -0.033203 -0.277734
v -0.241406 -0.015625 -0.247656
v 0.000000 -0.292969 -0.329688
v 0.210547 -0.292969 -0.212891
v 0.294141 -0.287891 -0.002734
v 0.331641 -0.264063 0.000000
v 0.231641 -0.292969 0.234375
v 0.289453 0.000000 0.292969
v -0.000000 -0.292969 0.329688
v 0.020703 -0.501172 -0.014844
v -0.115234 -0.398828 -0.116406
v 0.301563 -0.303906 -0.001172
v 0.001172 -0.403516 0.132031
v 0.263281 -0.106641 -0.261328
v 0.411719 0.000000 0.000000
v 0.192969 0.279688 0.212500
v -0.231641 -0.292969 -0.234375
v -0.219922 0.137109 0.226953
v -0.251953 0.118359 0.259375
v 0.292188 -0.000000 -0.307813
vt 0.4092 0.1797
vt 0.3516 0.5234
vt 0.6045 0.3682
vt 0.6045 0.2891
vt 0.6045 0.3682
vt 0.6045 0.2891
vt 0.8584 0.2891
vt 0.6660 0.5234
vt 0.6045 0.4707
vt 0.6045 0.2891
vt 0.4092 0.1797
vt 0.4873 0.5234
vt 0.3516 0.5234
vt 0.6045 0.4902
vt 0.6045 0.2891
vt 0.8584 0.5234
vt 0.8584 0.2891
vt 0.8584 0.0547
vt 0.6943 0.1494
vt 0.6191 0.0459
vt 0.6865 0.1562
vt 0.8584 0.1240
vt 0.7100 0.1074
vt 0.6045 0.1719
vt 0.6123 0.0498
vt 0.7051 0.1113
vt 0.8584 0.1211
vt 0.6045 0.5234
vt 0.8584 0.7578
vt 0.6045 0.7578
vt 0.6045 0.5234
vt 0.6045 0.5889
vt 0.3516 0.7578
vt 0.6045 0.7578
vt 0.8584 0.7246
vt 0.8584 0.7578
vt 0.6045 0.7578
vt 0.6045 0.5234
vt 0.3516 0.7578
vt 0.8584 0.9922
vt 0.7148 0.8594
vt 0.8584 0.7852
vt 0.6045 0.8750
vt 0.6045 0.6084
vt 0.8584 0.5234
vt 0.6377 0.2578
vt 0.6045 0.7578
vt 0.6045 0.4131
vt 0.6045 0.4600
vt 0.6045 0.5234
vn 0.4488 0.2761 0.8499
vn 0.4117 0.3328 0.8484
vn 0.4105 0.3344 0.8483
vn -0.3951 0.3532 0.8481
vn -0.3435 0.3201 0.8829
vn -0.3857 0.2960 0.8738
vn 0.0798 0.9833 -0.1638
vn 0.0923 0.9817 -0.1663
vn 0.0937 0.9833 -0.1563
vn -0.1583 0.9842 0.0797
vn -0.1411 0.9869 0.0777
vn -0.1467 0.9853 0.0877
vn 0.9083 0.2654 -0.3234
vn 0.9006 0.2781 -0.3341
vn 0.9059 0.2549 -0.3382
vn 0.9377 0.1975 -0.2859
vn 0.9229 0.2441 -0.2976
vn 0.9187 0.2232 -0.3257
vn 0.3637 0.2866 -0.8863
vn 0.3720 0.2802 -0.8849
vn 0.3720 0.2931 -0.8807
vn -0.3971 0.2843 -0.8726
vn -0.3925 0.2811 -0.8758
vn -0.3926 0.2871 -0.8737
vn -0.3681 0.2734 -0.8887
vn -0.3875 0.2543 -0.8861
vn -0.3571 0.2394 -0.9029
vn -0.8713 0.2841 -0.4002
vn -0.8731 0.2847 -0.3958
vn -0.8730 0.2808 -0.3987
vn -0.9011 0.2424 -0.3595
vn -0.8862 0.2496 -0.3903
vn -0.8864 0.2702 -0.3758
vn -0.8464 0.3629 0.3897
vn -0.8506 0.3467 0.3952
vn -0.8564 0.3475 0.3819
vn -0.3718 0.9080 -0.1930
vn -0.3784 0.9040 -0.1990
vn -0.3670 0.9067 -0.2076
vn 0.2518 0.9456 -0.2061
vn 0.2684 0.9386 -0.2166
vn 0.2624 0.9444 -0.1980
vn 0.0592 0.9977 -0.0336
vn 0.0588 0.9965 -0.0590
vn 0.0829 0.9955 -0.0454
vn 0.0675 0.9900 0.1239
vn 0.0829 0.9872 0.1360
vn 0.0607 0.9875 0.1457
vn 0.1076 0.9495 -0.2947
vn 0.1179 0.9536 -0.2771
vn 0.1010 0.9570 -0.2718
vn 0.0260 0.9992 -0.0299
vn 0.0395 0.9989 -0.0243
vn 0.0260 0.9995 -0.0180
vn -0.0508 0.9979 0.0392
vn -0.0318 0.9984 0.0466
vn -0.0503 0.9970 0.0582
vn -0.0581 0.9889 0.1368
vn -0.0391 0.9922 0.1186
vn -0.0385 0.9887 0.1449
vn -0.8658 -0.2360 0.4413
vn -0.8592 -0.2452 0.4492
vn -0.8652 -0.2463 0.4367
vn -0.8875 -0.1909 0.4193
vn -0.8967 -0.2164 0.3862
vn -0.9106 -0.1621 0.3801
vn -0.2629 0.9325 -0.2477
vn -0.2747 0.9320 -0.2364
vn -0.2720 0.9276 -0.2560
vn -0.2602 0.9138 -0.3117
vn -0.2476 0.9325 -0.2630
vn -0.2577 0.9273 -0.2714
vn 0.3733 -0.2635 -0.8895
vn 0.3806 -0.2402 -0.8930
vn 0.3635 -0.2465 -0.8984
vn 0.5285 -0.8283 -0.1859
vn 0.5401 -0.8218 -0.1814
vn 0.5339 -0.8202 -0.2058
vn 0.5316 -0.8365 0.1332
vn 0.5225 -0.8459 0.1070
vn 0.5137 -0.8491 0.1234
vn 0.3698 -0.2453 0.8962
vn 0.3682 -0.2582 0.8932
vn 0.3685 -0.2453 0.8967
vn 0.3668 -0.2580 0.8938
vn -0.4254 -0.2444 0.8714
vn -0.4403 -0.2510 0.8620
vn -0.4364 -0.2339 0.8688
vn -0.3667 -0.2204 0.9039
vn -0.4113 -0.1813 0.8933
vn -0.3530 -0.1438 0.9245
vn -0.4950 -0.8540 0.1600
vn -0.5001 -0.8549 0.1380
vn -0.5108 -0.8463 0.1512
vn -0.5115 -0.8452 -0.1550
vn -0.5006 -0.8468 -0.1797
vn -0.5204 -0.8383 -0.1626
vn -0.2227 -0.8232 -0.5223
vn -0.2195 -0.8178 -0.5321
vn -0.2265 -0.8163 -0.5313
vn 0.2959 -0.7866 -0.5419
vn 0.3013 -0.7883 -0.5365
vn 0.3018 -0.7842 -0.5422
vn 0.5561 -0.7828 -0.2791
vn 0.5659 -0.7757 -0.2792
vn 0.5596 -0.7774 -0.2874
vn 0.5475 -0.8133 0.1971
vn 0.5593 -0.8010 0.2137
vn 0.5655 -0.8012 0.1955
vn 0.2045 -0.8550 0.4767
vn 0.1916 -0.8586 0.4755
vn 0.1970 -0.8514 0.4862
vn -0.1096 -0.8715 0.4779
vn -0.1372 -0.8687 0.4759
vn -0.1257 -0.8583 0.4974
vn 0.8606 0.3621 -0.3581
vn 0.8656 0.3602 -0.3478
vn 0.8583 0.3704 -0.3551
vn 0.8722 0.4263 0.2398
vn 0.8713 0.4281 0.2400
vn 0.8716 0.4284 0.2381
vn 0.8566 -0.3033 -0.4174
vn 0.8536 -0.3219 -0.4097
vn 0.8607 -0.3116 -0.4027
vn 0.8502 -0.3352 -0.4060
vn 0.8361 -0.3229 -0.4435
vn 0.8205 -0.3722 -0.4339
vn 0.8916 -0.2604 0.3704
vn 0.8950 -0.2399 0.3760
vn 0.8911 -0.2632 0.3697
vn 0.9011 -0.2831 0.3284
vn 0.4638 -0.4021 0.7894
vn 0.4709 -0.3939 0.7894
vn 0.4762 -0.4000 0.7831
vn 0.7893 -0.3572 0.4995
vn 0.7870 -0.3703 0.4934
vn 0.7835 -0.3650 0.5029
vn 0.3464 0.3704 0.8619
vn -0.3635 0.2849 0.8870
vn -0.3659 0.2884 0.8848
vn -0.3610 0.2896 0.8865
vn 0.8436 0.3393 0.4162
vn 0.8504 0.3849 0.3588
vn 0.8437 0.3383 0.4168
vn 0.8391 0.2755 0.4691
vn -0.2303 -0.8817 -0.4118
vn -0.2240 -0.8846 -0.4091
vn -0.2202 -0.8817 -0.4172
vn -0.4108 -0.8843 -0.2218
vn -0.4002 -0.8889 -0.2230
vn -0.4066 -0.8846 -0.2284
vn -0.4027 -0.2352 -0.8846
vn -0.4108 -0.2554 -0.8752
vn -0.3900 -0.2514 -0.8859
vn -0.3831 -0.2121 -0.8990
vn -0.3715 -0.2237 -0.9011
vn -0.3647 -0.2033 -0.9087
vn -0.8862 -0.2477 -0.3915
vn -0.8726 -0.2592 -0.4140
vn -0.8817 -0.2325 -0.4105
vn -0.9011 -0.2292 -0.3681
vn -0.8935 -0.2189 -0.3922
vn -0.9087 -0.1922 -0.3706
vn -0.0788 -0.8390 0.5385
vn -0.0910 -0.8325 0.5465
vn -0.0853 -0.8303 0.5507
vn 0.1467 -0.8098 0.5681
vn 0.1520 -0.8145 0.5600
vn 0.1341 -0.8199 0.5566
vn -0.5279 -0.8215 -0.2155
vn -0.5221 -0.8244 -0.2186
vn -0.5275 -0.8200 -0.2222
vn -0.2254 -0.8194 -0.5270
vn -0.2130 -0.8208 -0.5301
vn -0.2072 -0.8223 -0.5299
vn 0.0197 0.8625 0.5057
vn 0.0047 0.8568 0.5157
vn -0.0014 0.8614 0.5079
vn 0.0638 0.8320 0.5511
vn 0.0597 0.8400 0.5393
vn 0.0695 0.8367 0.5432
vn -0.7834 -0.6210 -0.0259
vn -0.7921 -0.6103 -0.0097
vn -0.7816 -0.6238 0.0023
vn -0.6593 -0.7128 0.2394
vn -0.6511 -0.7132 0.2595
vn -0.6501 -0.7203 0.2421
vn -0.8724 0.2375 0.4272
vn -0.8732 0.2722 0.4043
vn -0.8637 0.2483 0.4386
vn -0.8753 0.1925 0.4437
vn -0.4447 0.1997 0.8731
vn -0.4332 0.1939 0.8802
vn -0.4436 0.1892 0.8760
vn -0.1283 0.9494 -0.2867
vn -0.1035 0.9536 -0.2826
vn -0.1167 0.9558 -0.2698
vn -0.0740 0.9969 -0.0277
vn -0.0789 0.9968 -0.0159
vn -0.0890 0.9957 -0.0274
vn 0.9040 0.3039 -0.3007
vn 0.9136 0.2492 -0.3213
vn 0.9104 0.2782 -0.3061
vn 0.2451 0.4888 -0.8373
vn 0.2322 0.4750 -0.8488
vn 0.2507 0.4751 -0.8434
vn 0.2539 -0.4478 -0.8574
vn 0.2468 -0.4330 -0.8670
vn 0.2384 -0.4498 -0.8607
vn 0.8829 -0.3661 -0.2940
vn 0.8782 -0.3671 -0.3065
vn 0.8771 -0.3758 -0.2990
vn 0.5344 0.8165 -0.2187
vn 0.5347 0.8200 -0.2045
vn 0.5236 0.8234 -0.2189
vn 0.5693 0.8017 -0.1821
vn 0.5581 0.8113 -0.1743
vn 0.5587 0.8071 -0.1911
vn 0.0161 0.7901 -0.6127
vn 0.0324 0.7794 -0.6257
vn 0.0304 0.7964 -0.6039
vn 0.0546 0.7605 -0.6470
vn 0.0915 0.7724 -0.6285
vn 0.1021 0.8028 -0.5874
vn -0.0307 0.7643 -0.6442
vn -0.0313 0.7609 -0.6481
vn -0.0649 0.7868 -0.6138
vn -0.0943 0.7718 -0.6289
vn -0.1063 0.7972 -0.5943
vn -0.1071 0.7657 -0.6342
vn -0.5413 0.8046 -0.2443
vn -0.5334 0.8114 -0.2391
vn -0.5386 0.8088 -0.2362
vn -0.5639 0.7963 -0.2188
vn -0.5734 0.7910 0.2132
vn -0.5833 0.7827 0.2170
vn -0.5807 0.7881 0.2043
vn -0.5393 0.8310 0.1368
vn -0.5694 0.8036 0.1732
vn -0.5944 0.7930 0.1334
vn -0.1357 0.8179 0.5592
vn -0.0662 0.8176 0.5719
vn -0.1199 0.8057 0.5800
vn -0.2033 0.7847 0.5856
vn 0.1212 0.7757 0.6194
vn -0.0106 0.8308 0.5565
vn 0.1816 0.8305 0.5265
vn 0.3133 0.7387 0.5968
vn 0.5803 0.7791 0.2372
vn 0.5837 0.7418 0.3303
vn 0.5544 0.7932 0.2517
vn 0.5689 0.8073 0.1571
vn 0.8855 0.2918 -0.3617
vn 0.8866 0.2851 -0.3642
vn 0.9016 0.2429 -0.3579
vn 0.8933 -0.2656 -0.3627
vn 0.8892 -0.2731 -0.3670
vn 0.8930 -0.2720 -0.3586
vn 0.3674 0.2569 -0.8939
vn 0.3420 0.2640 -0.9018
vn 0.3425 0.2763 -0.8979
vn 0.3888 0.2290 -0.8924
vn 0.3450 0.2630 -0.9010
vn 0.3493 0.2654 -0.8987
vn 0.4202 -0.3282 -0.8460
vn 0.4581 -0.2868 -0.8414
vn 0.4113 -0.3099 -0.8572
vn 0.3678 -0.3308 -0.8691
usemtl MODELS_bin_063:poly000MaterialSG
s 1
f 1/1/1 3/2/2 2/3/3
f 4/4/4 5/5/5 1/1/6
f 6/6/7 1/1/8 2/3/9
f 6/6/10 2/3/11 7/7/12
f 7/7/13 9/8/14 8/9/15
f 10/10/16 7/7/17 8/9/18
f 11/11/19 13/12/20 12/13/21
f 11/11/22 12/13/23 14/14/24
f 11/11/25 14/14/26 15/15/27
f 14/14/28 17/16/29 16/17/30
f 15/15/31 14/14/32 16/17/33
f 4/4/34 16/17/35 5/5/36
f 18/18/37 20/19/38 19/20/39
f 18/18/40 19/20/41 21/21/42
f 18/18/43 21/21/44 22/22/45
f 18/18/46 22/22/47 23/23/48
f 24/24/49 10/10/50 11/11/51
f 18/18/52 26/25/53 25/26/54
f 18/18/55 25/26/56 27/27/57
f 18/18/58 27/27/59 20/19/60
f 28/28/61 17/16/62 29/29/63
f 28/28/64 29/29/65 30/30/66
f 17/16/67 32/31/68 31/32/69
f 32/31/70 12/13/71 31/32/72
f 12/13/73 13/12/74 33/33/75
f 34/34/76 36/35/77 35/36/78
f 35/36/79 36/35/80 37/37/81
f 38/38/82 3/2/83 39/39/84
f 38/38/82 39/39/84 37/37/85
f 39/39/86 3/2/87 28/28/88
f 39/39/89 28/28/90 30/30/91
f 30/30/92 29/29/93 40/40/94
f 29/29/95 41/41/96 40/40/97
f 41/41/98 33/33/99 40/40/100
f 33/33/101 34/34/102 40/40/103
f 34/34/104 42/42/105 40/40/106
f 42/42/107 37/37/108 40/40/109
f 37/37/110 39/39/111 43/43/112
f 39/39/113 30/30/114 43/43/115
f 34/34/116 35/36/117 42/42/118
f 35/36/119 37/37/120 42/42/121
f 44/44/122 9/8/123 36/35/124
f 44/44/125 36/35/126 34/34/127
f 45/45/128 38/38/129 37/37/130
f 45/45/128 37/37/130 36/35/131
f 46/46/132 1/1/133 6/6/134
f 46/46/135 6/6/136 7/7/137
f 3/2/2 38/38/138 2/3/3
f 5/5/139 3/2/140 1/1/141
f 2/3/142 38/38/143 45/45/144
f 2/3/142 45/45/144 7/7/145
f 14/14/146 12/13/147 32/31/148
f 14/14/149 32/31/150 17/16/151
f 31/32/152 12/13/153 33/33/154
f 31/32/155 33/33/156 47/47/157
f 29/29/158 17/16/159 31/32/160
f 29/29/161 31/32/162 47/47/163
f 43/43/164 30/30/165 40/40/166
f 40/40/167 37/37/168 43/43/169
f 29/29/170 47/47/171 41/41/172
f 47/47/173 33/33/174 41/41/175
f 48/48/176 16/17/177 49/49/178
f 48/48/179 49/49/180 3/2/181
f 5/5/182 16/17/183 48/48/184
f 5/5/185 48/48/186 3/2/187
f 49/49/188 16/17/189 17/16/190
f 49/49/188 17/16/190 28/28/191
f 49/49/192 28/28/193 3/2/194
f 24/24/195 11/11/196 15/15/197
f 18/18/198 23/23/199 26/25/200
f 8/9/201 9/8/202 50/50/203
f 8/9/204 50/50/205 13/12/206
f 13/12/207 50/50/208 44/44/209
f 50/50/210 9/8/211 44/44/212
f 10/10/213 23/23/214 22/22/215
f 22/22/216 7/7/217 10/10/218
f 24/24/219 26/25/220 23/23/221
f 23/23/222 10/10/223 24/24/224
f 25/26/225 26/25/226 24/24/227
f 25/26/228 24/24/229 15/15/230
f 27/27/231 25/26/232 15/15/233
f 27/27/231 15/15/233 16/17/234
f 16/17/235 4/4/236 20/19/237
f 27/27/238 16/17/239 20/19/240
f 1/1/241 19/20/242 20/19/243
f 20/19/243 4/4/244 1/1/241
f 21/21/245 19/20/246 1/1/247
f 21/21/245 1/1/247 46/46/248
f 21/21/249 46/46/250 7/7/251
f 21/21/249 7/7/251 22/22/252
f 7/7/253 45/45/254 9/8/255
f 9/8/256 45/45/257 36/35/258
f 13/12/259 11/11/260 10/10/261
f 8/9/262 13/12/263 10/10/264
f 34/34/265 33/33/266 13/12/267
f 13/12/267 44/44/268 34/34/265
