# Blender v2.77 (sub 0) OBJ File: ''
# www.blender.org
mtllib Morph Ball Bomb Upgrade.mtl
o b5544d27_CMDL
v 0.110500 0.194402 0.329000
v 0.022700 0.158102 0.329000
v 0.190100 0.107602 0.244800
v 0.027900 0.040402 0.244800
v 0.238400 0.098802 0.051800
v -0.000000 0.000002 0.051800
v 0.142700 0.447702 0.329000
v 0.179100 0.359902 0.329000
v 0.229500 0.527202 0.244800
v 0.296700 0.365002 0.244800
v 0.238400 0.575502 0.051800
v 0.337100 0.337102 0.051800
v -0.110500 0.479802 0.329000
v -0.022700 0.516202 0.329000
v -0.190100 0.566702 0.244800
v -0.027900 0.633902 0.244800
v -0.238400 0.575502 0.051800
v -0.000000 0.674202 0.051800
v -0.142700 0.226602 0.329000
v -0.179100 0.314402 0.329000
v -0.229500 0.147002 0.244800
v -0.296700 0.309302 0.244800
v -0.238400 0.098802 0.051800
v -0.337100 0.337102 0.051800
v -0.000000 0.213002 0.247400
v -0.087800 0.249402 0.247400
v -0.211900 0.125202 0.073100
v -0.000000 0.037402 0.073100
v 0.124100 0.337102 0.247400
v 0.087800 0.249402 0.247400
v 0.211900 0.125202 0.073100
v 0.299700 0.337102 0.073100
v -0.000000 0.461302 0.247400
v 0.087800 0.424902 0.247400
v 0.211900 0.549102 0.073100
v -0.000000 0.636802 0.073100
v -0.124100 0.337102 0.247400
v -0.087800 0.424902 0.247400
v -0.211900 0.549102 0.073100
v -0.299700 0.337102 0.073100
v 0.000000 0.213002 -0.246800
v 0.000000 0.037402 -0.071200
v -0.211900 0.125202 -0.071200
v -0.087800 0.249402 -0.246800
v 0.124100 0.337102 -0.246800
v 0.299700 0.337102 -0.071200
v 0.211900 0.125202 -0.071200
v 0.087800 0.249402 -0.246800
v 0.000000 0.461302 -0.246800
v 0.000000 0.636802 -0.071200
v 0.211900 0.549102 -0.071200
v 0.087800 0.424902 -0.246800
v -0.124100 0.337102 -0.246800
v -0.299700 0.337102 -0.071200
v -0.211900 0.549102 -0.071200
v -0.087800 0.424902 -0.246800
v -0.002200 0.000002 -0.049800
v -0.236800 0.097202 -0.049800
v 0.240000 0.100402 -0.049800
v 0.337100 0.334902 -0.049800
v 0.236800 0.577102 -0.049800
v 0.002200 0.674202 -0.049800
v -0.240000 0.573902 -0.049800
v -0.337100 0.339402 -0.049800
v 0.110500 0.194402 -0.329000
v 0.022700 0.158102 -0.329000
v 0.142700 0.447702 -0.329000
v 0.179100 0.359902 -0.329000
v -0.110500 0.479802 -0.329000
v -0.022700 0.516202 -0.329000
v -0.142700 0.226602 -0.329000
v -0.179100 0.314402 -0.329000
v 0.027900 0.040402 -0.244200
v 0.190100 0.107602 -0.244200
v 0.296700 0.365002 -0.244200
v 0.229500 0.527202 -0.244200
v -0.027900 0.633902 -0.244200
v -0.190100 0.566702 -0.244200
v -0.296700 0.309302 -0.244200
v -0.229500 0.147002 -0.244200
v 0.004200 0.337502 0.281000
v 0.004200 0.337502 -0.280600
vt -1.8568 -1.5074
vt -1.7288 -1.5074
vt -1.9040 -1.3428
vt -1.6816 -1.3428
vt -1.9643 -1.1745
vt -1.6213 -1.1745
vt -1.8568 -1.5074
vt -1.7288 -1.5074
vt -1.9040 -1.3428
vt -1.6816 -1.3428
vt -1.9643 -1.1745
vt -1.6213 -1.1745
vt -1.8568 -1.5074
vt -1.7288 -1.5074
vt -1.9040 -1.3428
vt -1.6816 -1.3428
vt -1.9643 -1.1745
vt -1.6213 -1.1745
vt -1.8568 -1.5074
vt -1.7288 -1.5074
vt -1.9040 -1.3428
vt -1.6816 -1.3428
vt -1.9643 -1.1745
vt -1.6213 -1.1745
vt -1.5466 -1.0238
vt -1.4198 -1.0238
vt -1.3193 -1.3680
vt -1.6518 -1.3680
vt -1.5466 -1.0238
vt -1.4198 -1.0238
vt -1.3193 -1.3680
vt -1.6518 -1.3680
vt -1.5466 -1.0238
vt -1.4198 -1.0238
vt -1.3193 -1.3680
vt -1.6518 -1.3680
vt -1.5466 -1.0238
vt -1.4198 -1.0238
vt -1.3193 -1.3680
vt -1.6518 -1.3680
vt -1.1570 -1.8145
vt -1.1570 -1.9523
vt -1.0079 -1.9523
vt -1.0079 -1.8145
vt -1.1570 -1.8145
vt -1.1570 -1.9523
vt -1.0079 -1.9523
vt -1.0079 -1.8145
vt -1.1570 -1.8145
vt -1.1570 -1.9523
vt -1.0079 -1.9523
vt -1.0079 -1.8145
vt -1.1570 -1.8145
vt -1.1570 -1.9523
vt -1.0079 -1.9523
vt -1.0079 -1.8145
vt -1.3015 -1.4624
vt -1.6695 -1.4624
vt -1.3015 -1.4624
vt -1.6695 -1.4624
vt -1.3015 -1.4624
vt -1.6695 -1.4624
vt -1.3015 -1.4624
vt -1.6695 -1.4624
vt -1.5466 -1.0238
vt -1.6518 -1.3680
vt -1.3193 -1.3680
vt -1.4198 -1.0238
vt -1.5466 -1.0238
vt -1.6518 -1.3680
vt -1.3193 -1.3680
vt -1.4198 -1.0238
vt -1.5466 -1.0238
vt -1.6518 -1.3680
vt -1.3193 -1.3680
vt -1.4198 -1.0238
vt -1.5466 -1.0238
vt -1.6518 -1.3680
vt -1.3193 -1.3680
vt -1.4198 -1.0238
vt -1.6213 -1.1745
vt -1.6218 -1.0117
vt -1.9638 -1.0117
vt -1.9643 -1.1745
vt -1.6213 -1.1745
vt -1.6218 -1.0117
vt -1.9638 -1.0117
vt -1.9643 -1.1745
vt -1.6213 -1.1745
vt -1.6218 -1.0117
vt -1.9638 -1.0117
vt -1.9643 -1.1745
vt -1.6213 -1.1745
vt -1.6218 -1.0117
vt -1.9638 -1.0117
vt -1.9643 -1.1745
vt -1.6213 -1.1745
vt -1.6218 -1.0117
vt -1.9638 -1.0117
vt -1.9643 -1.1745
vt -1.6213 -1.1745
vt -1.6218 -1.0117
vt -1.9638 -1.0117
vt -1.9643 -1.1745
vt -1.6213 -1.1745
vt -1.6218 -1.0117
vt -1.9638 -1.0117
vt -1.9643 -1.1745
vt -1.6213 -1.1745
vt -1.6218 -1.0117
vt -1.9638 -1.0117
vt -1.9643 -1.1745
vt -1.1570 -1.8145
vt -1.0079 -1.8145
vt -1.0079 -1.9523
vt -1.1570 -1.9523
vt -1.1570 -1.8145
vt -1.0079 -1.8145
vt -1.0079 -1.9523
vt -1.1570 -1.9523
vt -1.1570 -1.8145
vt -1.0079 -1.8145
vt -1.0079 -1.9523
vt -1.1570 -1.9523
vt -1.1570 -1.8145
vt -1.0079 -1.8145
vt -1.0079 -1.9523
vt -1.1570 -1.9523
vt -1.6695 -1.4624
vt -1.3015 -1.4624
vt -1.6695 -1.4624
vt -1.3015 -1.4624
vt -1.6695 -1.4624
vt -1.3015 -1.4624
vt -1.6695 -1.4624
vt -1.3015 -1.4624
vt -1.6816 -1.3428
vt -1.7288 -1.5074
vt -1.9040 -1.3428
vt -1.6816 -1.3428
vt -1.7288 -1.5074
vt -1.9040 -1.3428
vt -1.6816 -1.3428
vt -1.7288 -1.5074
vt -1.9040 -1.3428
vt -1.6816 -1.3428
vt -1.7288 -1.5074
vt -1.9040 -1.3428
vt 0.1582 0.2018
vt 0.1050 0.0700
vt 0.2165 0.0702
vt 0.2937 0.1478
vt 0.2914 0.2572
vt 0.2108 0.3343
vt 0.0993 0.3340
vt 0.0221 0.2565
vt 0.0244 0.1471
vt 0.1582 0.2018
vt 0.0244 0.1471
vt 0.0221 0.2565
vt 0.0993 0.3340
vt 0.2108 0.3343
vt 0.2914 0.2572
vt 0.2937 0.1478
vt 0.2165 0.0702
vt 0.1050 0.0700
vt -0.2811 1.6658
vt -0.0593 1.9427
vt -0.3444 1.9740
vt -0.2811 1.6658
vt -0.0908 1.4098
vt -0.0584 1.4777
vt -0.2811 1.6658
vt -0.0593 1.9427
vt -0.3444 1.9740
vt -0.2811 1.6658
vt -0.0593 1.9427
vt -0.3444 1.9740
vt -1.2804 -1.3183
vt -1.3443 -1.0373
vt -1.0536 -1.0610
vt -1.2804 -1.3183
vt -1.3443 -1.0373
vt -1.0536 -1.0610
vt -1.2804 -1.3183
vt -1.3443 -1.0373
vt -1.0536 -1.0610
vt -1.2804 -1.3183
vt -1.0536 -1.0610
vt -1.0536 -1.5101
vt -1.0536 -1.5101
vt -1.0838 -1.5876
vt -0.0593 1.9427
vt -0.3444 1.9740
vt -1.0536 -1.5101
vt -1.0838 -1.5876
vt -0.0908 1.4098
vt -0.0584 1.4777
vt -1.0536 -1.5101
vt -1.0838 -1.5876
vt -0.0584 1.4777
vt -0.0908 1.4098
vt -1.3443 -1.0373
vt -1.0838 -1.5876
vt -0.0908 1.4098
vt -0.0584 1.4777
vt -1.8568 -1.5074
vt -1.8568 -1.5074
vt -1.8568 -1.5074
vt -1.8568 -1.5074
vt -0.2811 1.6658
vt -0.3444 1.9740
vt -0.0593 1.9427
vt -0.2811 1.6658
vt -0.0584 1.4777
vt -0.0908 1.4098
vt -0.2811 1.6658
vt -0.3444 1.9740
vt -0.0593 1.9427
vt -0.2811 1.6658
vt -0.3444 1.9740
vt -0.0593 1.9427
vt -1.2804 -1.3183
vt -1.0536 -1.0610
vt -1.3443 -1.0373
vt -1.2804 -1.3183
vt -1.0536 -1.0610
vt -1.3443 -1.0373
vt -1.2804 -1.3183
vt -1.0536 -1.0610
vt -1.3443 -1.0373
vt -1.2804 -1.3183
vt -1.0536 -1.5101
vt -1.0536 -1.0610
vt -1.0838 -1.5876
vt -1.0536 -1.5101
vt -0.0593 1.9427
vt -0.3444 1.9740
vt -1.0838 -1.5876
vt -1.0536 -1.5101
vt -0.0584 1.4777
vt -0.0908 1.4098
vt -1.0838 -1.5876
vt -1.0536 -1.5101
vt -0.0584 1.4777
vt -0.0908 1.4098
vt -1.3443 -1.0373
vt -1.0838 -1.5876
vt -0.0584 1.4777
vt -0.0908 1.4098
vn 0.2314 -0.5597 0.7957
vn 0.2317 -0.5592 0.7960
vn 0.3792 -0.9152 0.1366
vn 0.3793 -0.9151 0.1367
vn 0.5595 0.2319 0.7957
vn 0.5592 0.2316 0.7961
vn 0.9151 0.3791 0.1371
vn 0.9153 0.3789 0.1368
vn -0.2318 0.5590 0.7961
vn -0.2317 0.5592 0.7960
vn -0.3790 0.9152 0.1369
vn -0.3790 0.9152 0.1367
vn -0.5593 -0.2319 0.7958
vn -0.5591 -0.2316 0.7961
vn -0.9152 -0.3790 0.1368
vn -0.9152 -0.3791 0.1370
vn -0.2799 -0.6764 0.6812
vn -0.2802 -0.6763 0.6813
vn 0.6765 -0.2800 0.6812
vn 0.6763 -0.2802 0.6813
vn 0.2801 0.6763 0.6813
vn 0.2800 0.6765 0.6812
vn -0.6763 0.2801 0.6813
vn -0.3092 0.7468 0.5888
vn -0.3094 0.7466 0.5889
vn -0.7468 -0.3093 0.5888
vn 0.3096 -0.7468 0.5886
vn 0.3092 -0.7467 0.5889
vn 0.7464 0.3094 0.5892
vn 0.7468 0.3091 0.5888
vn -0.2007 -0.4845 0.8515
vn -0.2009 -0.4848 0.8512
vn 0.4845 -0.2007 0.8515
vn 0.4845 -0.2006 0.8515
vn 0.2007 0.4845 0.8514
vn 0.2007 0.4848 0.8513
vn -0.4845 0.2006 0.8515
vn -0.4845 0.2007 0.8514
vn -0.2812 -0.6786 -0.6786
vn -0.2813 -0.6785 -0.6787
vn 0.6786 -0.2812 -0.6786
vn 0.6786 -0.2811 -0.6786
vn 0.2812 0.6785 -0.6787
vn 0.2809 0.6787 -0.6785
vn -0.6786 0.2810 -0.6786
vn -0.6786 0.2811 -0.6786
vn -0.3826 -0.9239 0.0085
vn -0.3828 -0.9238 0.0085
vn 0.3825 -0.9239 -0.0085
vn 0.3829 -0.9237 -0.0083
vn 0.9238 -0.3827 0.0089
vn 0.9239 -0.3826 0.0085
vn 0.9239 0.3825 -0.0085
vn 0.9239 0.3826 -0.0083
vn 0.3828 0.9238 0.0086
vn 0.3824 0.9239 0.0085
vn -0.3828 0.9238 -0.0085
vn -0.3826 0.9239 -0.0083
vn -0.9238 0.3827 0.0084
vn -0.9239 0.3826 0.0085
vn -0.9239 -0.3826 -0.0085
vn -0.9239 -0.3826 -0.0087
vn -0.3101 0.7486 -0.5860
vn -0.3101 0.7487 -0.5860
vn -0.7486 -0.3100 -0.5860
vn -0.7486 -0.3101 -0.5860
vn 0.3104 -0.7487 -0.5858
vn 0.3101 -0.7486 -0.5860
vn 0.7487 0.3099 -0.5860
vn 0.7483 0.3102 -0.5864
vn -0.1982 -0.4786 -0.8554
vn -0.1982 -0.4785 -0.8554
vn 0.4785 -0.1982 -0.8554
vn 0.4786 -0.1982 -0.8554
vn 0.1982 0.4785 -0.8554
vn 0.1982 0.4786 -0.8554
vn -0.4786 0.1982 -0.8554
vn -0.4785 0.1982 -0.8554
vn 0.2327 -0.5617 -0.7939
vn 0.3794 -0.9158 -0.1313
vn 0.3793 -0.9159 -0.1315
vn 0.5619 0.2328 -0.7938
vn 0.9159 0.3794 -0.1315
vn 0.9158 0.3795 -0.1314
vn -0.2327 0.5620 -0.7937
vn -0.3793 0.9158 -0.1316
vn -0.3794 0.9159 -0.1315
vn -0.5618 -0.2327 -0.7939
vn -0.9158 -0.3795 -0.1314
vn -0.9158 -0.3796 -0.1312
vn 0.2681 0.1111 0.9570
vn 0.1094 0.2638 0.9584
vn -0.1062 0.2567 0.9606
vn -0.2517 0.1043 0.9622
vn -0.2512 -0.1041 0.9623
vn -0.1060 -0.2558 0.9609
vn 0.1088 -0.2624 0.9588
vn 0.2678 -0.1109 0.9571
vn 0.1091 -0.2643 -0.9583
vn -0.1066 -0.2572 -0.9605
vn -0.2530 -0.1047 -0.9618
vn -0.2534 0.1051 -0.9616
vn -0.1072 0.2585 -0.9601
vn 0.1100 0.2653 -0.9579
vn 0.2700 0.1116 -0.9564
vn 0.2693 -0.1115 -0.9566
vn 0.8013 0.5754 0.1639
vn -0.6301 0.7596 0.1612
vn -0.8014 -0.5752 0.1640
vn 0.5753 -0.8014 0.1640
vn -0.9734 -0.1597 0.1640
vn 0.1597 -0.9735 0.1639
vn 0.9735 0.1597 0.1639
vn -0.1598 0.9739 0.1610
vn 0.9826 0.0918 0.1612
vn 0.9739 0.1599 0.1610
vn -0.5757 0.8016 0.1613
vn -0.5754 0.8013 0.1638
vn 0.0918 -0.9826 0.1613
vn 0.1599 -0.9739 0.1610
vn 0.7597 0.6300 0.1612
vn 0.8016 0.5757 0.1610
vn -0.9827 -0.0915 0.1611
vn -0.9739 -0.1599 0.1610
vn 0.5758 -0.8016 0.1610
vn 0.6300 -0.7597 0.1612
vn -0.1597 0.9735 0.1639
vn -0.0917 0.9827 0.1612
vn -0.7597 -0.6300 0.1612
vn -0.8018 -0.5755 0.1608
vn 0.2327 -0.5618 -0.7938
vn 0.5620 0.2330 -0.7937
vn -0.2327 0.5620 -0.7938
vn -0.5619 -0.2329 -0.7938
vn 0.8015 0.5754 -0.1628
vn -0.6749 0.7204 -0.1596
vn -0.8016 -0.5753 -0.1629
vn 0.5755 -0.8014 -0.1627
vn -0.9737 -0.1598 -0.1625
vn 0.1598 -0.9736 -0.1631
vn 0.9737 0.1598 -0.1626
vn -0.1597 0.9742 -0.1597
vn 0.9867 0.0322 -0.1596
vn 0.9741 0.1599 -0.1598
vn -0.5758 0.8018 -0.1598
vn -0.5755 0.8015 -0.1625
vn 0.0323 -0.9867 -0.1596
vn 0.1599 -0.9741 -0.1599
vn 0.7204 0.6749 -0.1596
vn 0.8018 0.5758 -0.1598
vn -0.9867 -0.0322 -0.1596
vn -0.9741 -0.1599 -0.1599
vn 0.5758 -0.8018 -0.1598
vn 0.6749 -0.7204 -0.1596
vn -0.1597 0.9737 -0.1626
vn -0.0322 0.9867 -0.1596
vn -0.7204 -0.6749 -0.1596
vn -0.8020 -0.5756 -0.1596
usemtl Material__185
s 1
f 1/1/1 2/2/1 3/3/1
f 4/4/2 3/3/2 2/2/2
f 3/3/3 4/4/3 5/5/3
f 6/6/4 5/5/4 4/4/4
f 7/7/5 8/8/5 9/9/5
f 10/10/6 9/9/6 8/8/6
f 9/9/7 10/10/7 11/11/7
f 12/12/8 11/11/8 10/10/8
f 13/13/9 14/14/9 15/15/9
f 16/16/10 15/15/10 14/14/10
f 15/15/11 16/16/11 17/17/11
f 18/18/12 17/17/12 16/16/12
f 19/19/13 20/20/13 21/21/13
f 22/22/14 21/21/14 20/20/14
f 21/21/15 22/22/15 23/23/15
f 24/24/16 23/23/16 22/22/16
f 25/25/17 26/26/17 27/27/17
f 25/25/18 27/27/18 28/28/18
f 29/29/19 30/30/19 31/31/19
f 29/29/20 31/31/20 32/32/20
f 33/33/21 34/34/21 35/35/21
f 33/33/22 35/35/22 36/36/22
f 37/37/23 38/38/23 39/39/23
f 37/37/23 39/39/23 40/40/23
f 25/41/24 2/42/24 1/43/24
f 25/41/25 1/43/25 30/44/25
f 29/45/26 8/46/26 7/47/26
f 29/45/26 7/47/26 34/48/26
f 33/49/27 14/50/27 13/51/27
f 33/49/28 13/51/28 38/52/28
f 37/53/29 20/54/29 19/55/29
f 37/53/30 19/55/30 26/56/30
f 27/27/31 23/57/31 6/58/31
f 27/27/32 6/58/32 28/28/32
f 31/31/33 5/59/33 12/60/33
f 31/31/34 12/60/34 32/32/34
f 35/35/35 11/61/35 18/62/35
f 35/35/36 18/62/36 36/36/36
f 39/39/37 17/63/37 24/64/37
f 39/39/38 24/64/38 40/40/38
f 41/65/39 42/66/39 43/67/39
f 41/65/40 43/67/40 44/68/40
f 45/69/41 46/70/41 47/71/41
f 45/69/42 47/71/42 48/72/42
f 49/73/43 50/74/43 51/75/43
f 49/73/44 51/75/44 52/76/44
f 53/77/45 54/78/45 55/79/45
f 53/77/46 55/79/46 56/80/46
f 57/81/47 6/82/47 23/83/47
f 57/81/48 23/83/48 58/84/48
f 59/85/49 5/86/49 6/87/49
f 59/85/50 6/87/50 57/88/50
f 60/89/51 12/90/51 5/91/51
f 60/89/52 5/91/52 59/92/52
f 61/93/53 11/94/53 12/95/53
f 61/93/54 12/95/54 60/96/54
f 62/97/55 18/98/55 11/99/55
f 62/97/56 11/99/56 61/100/56
f 63/101/57 17/102/57 18/103/57
f 63/101/58 18/103/58 62/104/58
f 64/105/59 24/106/59 17/107/59
f 64/105/60 17/107/60 63/108/60
f 58/109/61 23/110/61 24/111/61
f 58/109/62 24/111/62 64/112/62
f 41/113/63 48/114/63 65/115/63
f 41/113/64 65/115/64 66/116/64
f 45/117/65 52/118/65 67/119/65
f 45/117/66 67/119/66 68/120/66
f 49/121/67 56/122/67 69/123/67
f 49/121/68 69/123/68 70/124/68
f 53/125/69 44/126/69 71/127/69
f 53/125/70 71/127/70 72/128/70
f 43/67/71 42/66/71 57/129/71
f 43/67/72 57/129/72 58/130/72
f 47/71/73 46/70/73 60/131/73
f 47/71/74 60/131/74 59/132/74
f 51/75/75 50/74/75 62/133/75
f 51/75/76 62/133/76 61/134/76
f 55/79/77 54/78/77 64/135/77
f 55/79/78 64/135/78 63/136/78
f 73/137/79 66/138/79 74/139/79
f 73/137/80 74/139/80 59/92/80
f 73/137/81 59/92/81 57/81/81
f 75/140/82 68/141/82 76/142/82
f 75/140/83 76/142/83 61/100/83
f 75/140/84 61/100/84 60/89/84
f 77/143/85 70/144/85 78/145/85
f 77/143/86 78/145/86 63/108/86
f 77/143/87 63/108/87 62/97/87
f 79/146/88 72/147/88 80/148/88
f 79/146/89 80/148/89 58/84/89
f 79/146/90 58/84/90 64/105/90
f 81/149/91 29/150/91 34/151/91
f 81/149/92 34/151/92 33/152/92
f 81/149/93 33/152/93 38/153/93
f 81/149/94 38/153/94 37/154/94
f 81/149/95 37/154/95 26/155/95
f 81/149/96 26/155/96 25/156/96
f 81/149/97 25/156/97 30/157/97
f 81/149/98 30/157/98 29/150/98
f 82/158/99 48/159/99 41/160/99
f 82/158/100 41/160/100 44/161/100
f 82/158/101 44/161/101 53/162/101
f 82/158/102 53/162/102 56/163/102
f 82/158/103 56/163/103 49/164/103
f 82/158/104 49/164/104 52/165/104
f 82/158/105 52/165/105 45/166/105
f 82/158/106 45/166/106 48/159/106
f 3/167/107 30/168/107 1/169/107
f 9/170/108 11/171/108 35/172/108
f 15/173/109 38/174/109 13/175/109
f 21/176/110 26/177/110 19/178/110
f 4/179/111 2/180/111 25/181/111
f 10/182/112 8/183/112 29/184/112
f 16/185/113 14/186/113 33/187/113
f 22/188/114 37/189/114 40/190/114
f 16/185/115 36/191/115 18/192/115
f 16/185/116 33/187/116 36/191/116
f 9/170/117 35/172/117 34/193/117
f 9/170/118 34/193/118 7/194/118
f 10/182/119 32/195/119 12/196/119
f 10/182/120 29/184/120 32/195/120
f 3/167/121 5/197/121 31/198/121
f 3/167/122 31/198/122 30/168/122
f 4/179/123 28/199/123 6/200/123
f 4/179/124 25/181/124 28/199/124
f 21/176/125 27/201/125 26/177/125
f 21/176/126 23/202/126 27/201/126
f 22/188/127 20/203/127 37/189/127
f 22/188/128 40/190/128 24/204/128
f 15/173/129 17/205/129 39/206/129
f 15/173/130 39/206/130 38/174/130
f 66/138/131 65/207/131 74/139/131
f 68/141/132 67/208/132 76/142/132
f 70/144/133 69/209/133 78/145/133
f 72/147/134 71/210/134 80/148/134
f 74/211/135 65/212/135 48/213/135
f 76/214/136 51/215/136 61/216/136
f 78/217/137 69/218/137 56/219/137
f 80/220/138 71/221/138 44/222/138
f 73/223/139 41/224/139 66/225/139
f 75/226/140 45/227/140 68/228/140
f 77/229/141 49/230/141 70/231/141
f 79/232/142 54/233/142 53/234/142
f 77/229/143 62/235/143 50/236/143
f 77/229/144 50/236/144 49/230/144
f 76/214/145 52/237/145 51/215/145
f 76/214/146 67/238/146 52/237/146
f 75/226/147 60/239/147 46/240/147
f 75/226/148 46/240/148 45/227/148
f 74/211/149 47/241/149 59/242/149
f 74/211/150 48/213/150 47/241/150
f 73/223/151 57/243/151 42/244/151
f 73/223/152 42/244/152 41/224/152
f 80/220/153 44/222/153 43/245/153
f 80/220/154 43/245/154 58/246/154
f 79/232/155 53/234/155 72/247/155
f 79/232/156 64/248/156 54/233/156
f 78/217/157 55/249/157 63/250/157
f 78/217/158 56/219/158 55/249/158
